M48
; DRILL file {KiCad 7.0.10} date Wed Feb  7 12:17:32 2024
; FORMAT={-:-/ absolute / inch / decimal}
; #@! TF.CreationDate,2024-02-07T12:17:32-05:00
; #@! TF.GenerationSoftware,Kicad,Pcbnew,7.0.10
; #@! TF.FileFunction,Plated,1,2,PTH
FMAT,2
INCH
; #@! TA.AperFunction,Plated,PTH,ComponentDrill
T1C0.0295
; #@! TA.AperFunction,Plated,PTH,ComponentDrill
T2C0.0300
; #@! TA.AperFunction,Plated,PTH,ComponentDrill
T3C0.0315
; #@! TA.AperFunction,Plated,PTH,ComponentDrill
T4C0.0394
; #@! TA.AperFunction,Plated,PTH,ComponentDrill
T5C0.0472
%
G90
G05
T1
X0.3002Y-1.75
X0.4998Y-1.9
X0.6002Y-1.75
X0.7998Y-1.9
T2
X1.0Y-1.9
X1.0Y-3.1
X1.2Y-1.1
X1.2Y-1.2
X1.2Y-1.3
X1.2Y-1.4
X1.2Y-1.5
X1.2Y-1.6
X1.2Y-1.7
X1.3Y-1.9
X1.3Y-3.1
X2.6Y-1.15
X2.6Y-2.75
X3.3Y-1.15
X3.3Y-2.75
T3
X0.1Y-1.9
X0.4Y-1.9
X2.9016Y-0.85
X3.0Y-0.85
T4
X0.45Y-1.25
X0.45Y-1.35
X0.45Y-1.45
X0.45Y-1.55
X1.3Y-0.75
X1.95Y-0.3
X1.95Y-3.6
X2.6Y-0.75
X2.75Y-2.95
T5
X0.3547Y-2.45
X0.65Y-2.45
M30
