%TF.GenerationSoftware,KiCad,Pcbnew,7.0.10*%
%TF.CreationDate,2024-02-07T23:47:23-05:00*%
%TF.ProjectId,board_down,626f6172-645f-4646-9f77-6e2e6b696361,rev?*%
%TF.SameCoordinates,Original*%
%TF.FileFunction,Copper,L1,Top*%
%TF.FilePolarity,Positive*%
%FSLAX46Y46*%
G04 Gerber Fmt 4.6, Leading zero omitted, Abs format (unit mm)*
G04 Created by KiCad (PCBNEW 7.0.10) date 2024-02-07 23:47:23*
%MOMM*%
%LPD*%
G01*
G04 APERTURE LIST*
%TA.AperFunction,ComponentPad*%
%ADD10R,1.700000X1.700000*%
%TD*%
%TA.AperFunction,ComponentPad*%
%ADD11R,1.600000X1.600000*%
%TD*%
%TA.AperFunction,ComponentPad*%
%ADD12C,1.600000*%
%TD*%
%TA.AperFunction,ComponentPad*%
%ADD13R,2.400000X2.400000*%
%TD*%
%TA.AperFunction,ComponentPad*%
%ADD14C,2.400000*%
%TD*%
%TA.AperFunction,ComponentPad*%
%ADD15C,1.700000*%
%TD*%
%TA.AperFunction,ComponentPad*%
%ADD16O,1.500000X1.500000*%
%TD*%
%TA.AperFunction,ComponentPad*%
%ADD17R,1.500000X1.500000*%
%TD*%
%TA.AperFunction,ComponentPad*%
%ADD18O,1.600000X1.600000*%
%TD*%
%TA.AperFunction,Conductor*%
%ADD19C,1.000000*%
%TD*%
G04 APERTURE END LIST*
D10*
%TO.P,J102,1,Pin_1*%
%TO.N,Net-(J102-Pin_1)*%
X33020000Y-19050000D03*
%TD*%
D11*
%TO.P,C101,1*%
%TO.N,5V*%
X73700000Y-21590000D03*
D12*
%TO.P,C101,2*%
%TO.N,GND*%
X76200000Y-21590000D03*
%TD*%
D13*
%TO.P,C103,1*%
%TO.N,Net-(D102-A)*%
X9010000Y-62230000D03*
D14*
%TO.P,C103,2*%
%TO.N,GND*%
X16510000Y-62230000D03*
%TD*%
D10*
%TO.P,J104,1,Pin_1*%
%TO.N,GND*%
X49530000Y-91440000D03*
%TD*%
D15*
%TO.P,U102,1,IN+*%
%TO.N,Net-(D101-A)*%
X66040000Y-69850000D03*
%TO.P,U102,2,IN-*%
%TO.N,GND*%
X83820000Y-69850000D03*
%TO.P,U102,3,OUT+*%
%TO.N,5V*%
X66040000Y-29210000D03*
%TO.P,U102,4,OUT-*%
%TO.N,GND*%
X83820000Y-29210000D03*
%TD*%
%TO.P,U101,1,VIN+*%
%TO.N,Net-(J102-Pin_1)*%
X25400000Y-48260000D03*
%TO.P,U101,2,VIN-*%
%TO.N,GND*%
X33020000Y-48260000D03*
%TO.P,U101,3,VOUT+*%
%TO.N,Net-(D101-A)*%
X25400000Y-78740000D03*
%TO.P,U101,4,VOUT-*%
%TO.N,GND*%
X33020000Y-78740000D03*
%TD*%
D10*
%TO.P,J118,1,Pin_1*%
%TO.N,Net-(J118-Pin_1)*%
X11430000Y-39370000D03*
%TD*%
D16*
%TO.P,D102,2,A*%
%TO.N,Net-(D102-A)*%
X7625000Y-44450000D03*
D17*
%TO.P,D102,1,K*%
%TO.N,Net-(D101-A)*%
X15245000Y-44450000D03*
%TD*%
D12*
%TO.P,R101,1*%
%TO.N,Net-(D101-K)*%
X10160000Y-48260000D03*
D18*
%TO.P,R101,2*%
%TO.N,Net-(D102-A)*%
X2540000Y-48260000D03*
%TD*%
D15*
%TO.P,U104,1,LRC*%
%TO.N,Net-(J118-Pin_1)*%
X30480000Y-43180000D03*
%TO.P,U104,2,BCLK*%
%TO.N,Net-(J119-Pin_1)*%
X30480000Y-40640000D03*
%TO.P,U104,3,DIN*%
%TO.N,Net-(J120-Pin_1)*%
X30480000Y-38100000D03*
%TO.P,U104,4,GAIN*%
%TO.N,GND*%
X30480000Y-35560000D03*
%TO.P,U104,5,SD*%
%TO.N,unconnected-(U104-SD-Pad5)*%
X30480000Y-33020000D03*
%TO.P,U104,6,GND*%
%TO.N,GND*%
X30480000Y-30480000D03*
%TO.P,U104,7,Vin*%
%TO.N,3.3V*%
X30480000Y-27940000D03*
%TD*%
D10*
%TO.P,J120,1,Pin_1*%
%TO.N,Net-(J120-Pin_1)*%
X11430000Y-34290000D03*
%TD*%
D17*
%TO.P,D101,1,K*%
%TO.N,Net-(D101-K)*%
X12695000Y-48260000D03*
D16*
%TO.P,D101,2,A*%
%TO.N,Net-(D101-A)*%
X20315000Y-48260000D03*
%TD*%
D10*
%TO.P,J103,1,Pin_1*%
%TO.N,Net-(J101-Pin_1)*%
X49530000Y-7620000D03*
%TD*%
%TO.P,J119,1,Pin_1*%
%TO.N,Net-(J119-Pin_1)*%
X11430000Y-36830000D03*
%TD*%
%TO.P,J116,1,Pin_1*%
%TO.N,5V*%
X69850000Y-74930000D03*
%TD*%
%TO.P,J101,1,Pin_1*%
%TO.N,Net-(J101-Pin_1)*%
X66040000Y-19050000D03*
%TD*%
%TO.P,J117,1,Pin_1*%
%TO.N,3.3V*%
X11430000Y-31750000D03*
%TD*%
D19*
%TO.N,5V*%
X66040000Y-63500000D02*
X69850000Y-67310000D01*
X73660000Y-21590000D02*
X66040000Y-29210000D01*
X73700000Y-21590000D02*
X73660000Y-21590000D01*
X69850000Y-67310000D02*
X69850000Y-74930000D01*
X66040000Y-29210000D02*
X66040000Y-63500000D01*
%TO.N,GND*%
X62230000Y-91440000D02*
X83820000Y-69850000D01*
X31750000Y-30480000D02*
X30480000Y-30480000D01*
X33020000Y-48260000D02*
X33020000Y-36830000D01*
X83820000Y-69850000D02*
X83820000Y-29210000D01*
X33020000Y-87630000D02*
X33020000Y-78740000D01*
X33020000Y-31750000D02*
X31750000Y-30480000D01*
X31750000Y-35560000D02*
X30480000Y-35560000D01*
X33020000Y-36830000D02*
X31750000Y-35560000D01*
X49530000Y-91440000D02*
X62230000Y-91440000D01*
X76200000Y-21590000D02*
X83820000Y-29210000D01*
X36830000Y-91440000D02*
X33020000Y-87630000D01*
X49530000Y-91440000D02*
X36830000Y-91440000D01*
X33020000Y-48260000D02*
X33020000Y-78740000D01*
X33020000Y-36830000D02*
X33020000Y-31750000D01*
%TO.N,Net-(D102-A)*%
X7625000Y-44450000D02*
X6350000Y-44450000D01*
X2540000Y-55880000D02*
X2540000Y-48260000D01*
X6350000Y-44450000D02*
X2540000Y-48260000D01*
X8890000Y-62230000D02*
X2540000Y-55880000D01*
X9010000Y-62230000D02*
X8890000Y-62230000D01*
%TO.N,Net-(D101-K)*%
X10160000Y-48260000D02*
X12695000Y-48260000D01*
%TO.N,Net-(D101-A)*%
X16510000Y-44450000D02*
X15245000Y-44450000D01*
X25395000Y-53340000D02*
X25400000Y-53340000D01*
X25400000Y-53340000D02*
X25400000Y-78740000D01*
X20315000Y-48260000D02*
X16510000Y-44455000D01*
X16510000Y-44455000D02*
X16510000Y-44450000D01*
X20315000Y-48260000D02*
X25395000Y-53340000D01*
%TO.N,Net-(J101-Pin_1)*%
X60960000Y-7620000D02*
X66040000Y-12700000D01*
X66040000Y-12700000D02*
X66040000Y-19050000D01*
X49530000Y-7620000D02*
X60960000Y-7620000D01*
%TO.N,3.3V*%
X11430000Y-31750000D02*
X15240000Y-27940000D01*
X15240000Y-27940000D02*
X30480000Y-27940000D01*
%TO.N,Net-(J118-Pin_1)*%
X11430000Y-39370000D02*
X17780000Y-39370000D01*
X21590000Y-43180000D02*
X30480000Y-43180000D01*
X17780000Y-39370000D02*
X21590000Y-43180000D01*
%TO.N,Net-(J119-Pin_1)*%
X11430000Y-36830000D02*
X19050000Y-36830000D01*
X19050000Y-36830000D02*
X22860000Y-40640000D01*
X22860000Y-40640000D02*
X30480000Y-40640000D01*
%TO.N,Net-(J120-Pin_1)*%
X24130000Y-38100000D02*
X20320000Y-34290000D01*
X30480000Y-38100000D02*
X24130000Y-38100000D01*
X20320000Y-34290000D02*
X11430000Y-34290000D01*
%TD*%
M02*
