%TF.GenerationSoftware,KiCad,Pcbnew,7.0.10*%
%TF.CreationDate,2024-02-07T12:23:15-05:00*%
%TF.ProjectId,board_down,626f6172-645f-4646-9f77-6e2e6b696361,rev?*%
%TF.SameCoordinates,Original*%
%TF.FileFunction,Legend,Top*%
%TF.FilePolarity,Positive*%
%FSLAX46Y46*%
G04 Gerber Fmt 4.6, Leading zero omitted, Abs format (unit mm)*
G04 Created by KiCad (PCBNEW 7.0.10) date 2024-02-07 12:23:15*
%MOMM*%
%LPD*%
G01*
G04 APERTURE LIST*
%ADD10C,0.150000*%
%ADD11C,0.100000*%
%ADD12C,0.120000*%
G04 APERTURE END LIST*
D10*
X22200000Y-62070000D02*
G75*
G03*
X3200000Y-62070000I-9500000J0D01*
G01*
X3200000Y-62070000D02*
G75*
G03*
X22200000Y-62070000I9500000J0D01*
G01*
X31734285Y-15734819D02*
X31734285Y-16449104D01*
X31734285Y-16449104D02*
X31686666Y-16591961D01*
X31686666Y-16591961D02*
X31591428Y-16687200D01*
X31591428Y-16687200D02*
X31448571Y-16734819D01*
X31448571Y-16734819D02*
X31353333Y-16734819D01*
X32734285Y-16734819D02*
X32162857Y-16734819D01*
X32448571Y-16734819D02*
X32448571Y-15734819D01*
X32448571Y-15734819D02*
X32353333Y-15877676D01*
X32353333Y-15877676D02*
X32258095Y-15972914D01*
X32258095Y-15972914D02*
X32162857Y-16020533D01*
X33353333Y-15734819D02*
X33448571Y-15734819D01*
X33448571Y-15734819D02*
X33543809Y-15782438D01*
X33543809Y-15782438D02*
X33591428Y-15830057D01*
X33591428Y-15830057D02*
X33639047Y-15925295D01*
X33639047Y-15925295D02*
X33686666Y-16115771D01*
X33686666Y-16115771D02*
X33686666Y-16353866D01*
X33686666Y-16353866D02*
X33639047Y-16544342D01*
X33639047Y-16544342D02*
X33591428Y-16639580D01*
X33591428Y-16639580D02*
X33543809Y-16687200D01*
X33543809Y-16687200D02*
X33448571Y-16734819D01*
X33448571Y-16734819D02*
X33353333Y-16734819D01*
X33353333Y-16734819D02*
X33258095Y-16687200D01*
X33258095Y-16687200D02*
X33210476Y-16639580D01*
X33210476Y-16639580D02*
X33162857Y-16544342D01*
X33162857Y-16544342D02*
X33115238Y-16353866D01*
X33115238Y-16353866D02*
X33115238Y-16115771D01*
X33115238Y-16115771D02*
X33162857Y-15925295D01*
X33162857Y-15925295D02*
X33210476Y-15830057D01*
X33210476Y-15830057D02*
X33258095Y-15782438D01*
X33258095Y-15782438D02*
X33353333Y-15734819D01*
X34067619Y-15830057D02*
X34115238Y-15782438D01*
X34115238Y-15782438D02*
X34210476Y-15734819D01*
X34210476Y-15734819D02*
X34448571Y-15734819D01*
X34448571Y-15734819D02*
X34543809Y-15782438D01*
X34543809Y-15782438D02*
X34591428Y-15830057D01*
X34591428Y-15830057D02*
X34639047Y-15925295D01*
X34639047Y-15925295D02*
X34639047Y-16020533D01*
X34639047Y-16020533D02*
X34591428Y-16163390D01*
X34591428Y-16163390D02*
X34020000Y-16734819D01*
X34020000Y-16734819D02*
X34639047Y-16734819D01*
X68730952Y-23219580D02*
X68683333Y-23267200D01*
X68683333Y-23267200D02*
X68540476Y-23314819D01*
X68540476Y-23314819D02*
X68445238Y-23314819D01*
X68445238Y-23314819D02*
X68302381Y-23267200D01*
X68302381Y-23267200D02*
X68207143Y-23171961D01*
X68207143Y-23171961D02*
X68159524Y-23076723D01*
X68159524Y-23076723D02*
X68111905Y-22886247D01*
X68111905Y-22886247D02*
X68111905Y-22743390D01*
X68111905Y-22743390D02*
X68159524Y-22552914D01*
X68159524Y-22552914D02*
X68207143Y-22457676D01*
X68207143Y-22457676D02*
X68302381Y-22362438D01*
X68302381Y-22362438D02*
X68445238Y-22314819D01*
X68445238Y-22314819D02*
X68540476Y-22314819D01*
X68540476Y-22314819D02*
X68683333Y-22362438D01*
X68683333Y-22362438D02*
X68730952Y-22410057D01*
X69683333Y-23314819D02*
X69111905Y-23314819D01*
X69397619Y-23314819D02*
X69397619Y-22314819D01*
X69397619Y-22314819D02*
X69302381Y-22457676D01*
X69302381Y-22457676D02*
X69207143Y-22552914D01*
X69207143Y-22552914D02*
X69111905Y-22600533D01*
X70302381Y-22314819D02*
X70397619Y-22314819D01*
X70397619Y-22314819D02*
X70492857Y-22362438D01*
X70492857Y-22362438D02*
X70540476Y-22410057D01*
X70540476Y-22410057D02*
X70588095Y-22505295D01*
X70588095Y-22505295D02*
X70635714Y-22695771D01*
X70635714Y-22695771D02*
X70635714Y-22933866D01*
X70635714Y-22933866D02*
X70588095Y-23124342D01*
X70588095Y-23124342D02*
X70540476Y-23219580D01*
X70540476Y-23219580D02*
X70492857Y-23267200D01*
X70492857Y-23267200D02*
X70397619Y-23314819D01*
X70397619Y-23314819D02*
X70302381Y-23314819D01*
X70302381Y-23314819D02*
X70207143Y-23267200D01*
X70207143Y-23267200D02*
X70159524Y-23219580D01*
X70159524Y-23219580D02*
X70111905Y-23124342D01*
X70111905Y-23124342D02*
X70064286Y-22933866D01*
X70064286Y-22933866D02*
X70064286Y-22695771D01*
X70064286Y-22695771D02*
X70111905Y-22505295D01*
X70111905Y-22505295D02*
X70159524Y-22410057D01*
X70159524Y-22410057D02*
X70207143Y-22362438D01*
X70207143Y-22362438D02*
X70302381Y-22314819D01*
X71588095Y-23314819D02*
X71016667Y-23314819D01*
X71302381Y-23314819D02*
X71302381Y-22314819D01*
X71302381Y-22314819D02*
X71207143Y-22457676D01*
X71207143Y-22457676D02*
X71111905Y-22552914D01*
X71111905Y-22552914D02*
X71016667Y-22600533D01*
X11640952Y-52339580D02*
X11593333Y-52387200D01*
X11593333Y-52387200D02*
X11450476Y-52434819D01*
X11450476Y-52434819D02*
X11355238Y-52434819D01*
X11355238Y-52434819D02*
X11212381Y-52387200D01*
X11212381Y-52387200D02*
X11117143Y-52291961D01*
X11117143Y-52291961D02*
X11069524Y-52196723D01*
X11069524Y-52196723D02*
X11021905Y-52006247D01*
X11021905Y-52006247D02*
X11021905Y-51863390D01*
X11021905Y-51863390D02*
X11069524Y-51672914D01*
X11069524Y-51672914D02*
X11117143Y-51577676D01*
X11117143Y-51577676D02*
X11212381Y-51482438D01*
X11212381Y-51482438D02*
X11355238Y-51434819D01*
X11355238Y-51434819D02*
X11450476Y-51434819D01*
X11450476Y-51434819D02*
X11593333Y-51482438D01*
X11593333Y-51482438D02*
X11640952Y-51530057D01*
X12593333Y-52434819D02*
X12021905Y-52434819D01*
X12307619Y-52434819D02*
X12307619Y-51434819D01*
X12307619Y-51434819D02*
X12212381Y-51577676D01*
X12212381Y-51577676D02*
X12117143Y-51672914D01*
X12117143Y-51672914D02*
X12021905Y-51720533D01*
X13212381Y-51434819D02*
X13307619Y-51434819D01*
X13307619Y-51434819D02*
X13402857Y-51482438D01*
X13402857Y-51482438D02*
X13450476Y-51530057D01*
X13450476Y-51530057D02*
X13498095Y-51625295D01*
X13498095Y-51625295D02*
X13545714Y-51815771D01*
X13545714Y-51815771D02*
X13545714Y-52053866D01*
X13545714Y-52053866D02*
X13498095Y-52244342D01*
X13498095Y-52244342D02*
X13450476Y-52339580D01*
X13450476Y-52339580D02*
X13402857Y-52387200D01*
X13402857Y-52387200D02*
X13307619Y-52434819D01*
X13307619Y-52434819D02*
X13212381Y-52434819D01*
X13212381Y-52434819D02*
X13117143Y-52387200D01*
X13117143Y-52387200D02*
X13069524Y-52339580D01*
X13069524Y-52339580D02*
X13021905Y-52244342D01*
X13021905Y-52244342D02*
X12974286Y-52053866D01*
X12974286Y-52053866D02*
X12974286Y-51815771D01*
X12974286Y-51815771D02*
X13021905Y-51625295D01*
X13021905Y-51625295D02*
X13069524Y-51530057D01*
X13069524Y-51530057D02*
X13117143Y-51482438D01*
X13117143Y-51482438D02*
X13212381Y-51434819D01*
X13879048Y-51434819D02*
X14498095Y-51434819D01*
X14498095Y-51434819D02*
X14164762Y-51815771D01*
X14164762Y-51815771D02*
X14307619Y-51815771D01*
X14307619Y-51815771D02*
X14402857Y-51863390D01*
X14402857Y-51863390D02*
X14450476Y-51911009D01*
X14450476Y-51911009D02*
X14498095Y-52006247D01*
X14498095Y-52006247D02*
X14498095Y-52244342D01*
X14498095Y-52244342D02*
X14450476Y-52339580D01*
X14450476Y-52339580D02*
X14402857Y-52387200D01*
X14402857Y-52387200D02*
X14307619Y-52434819D01*
X14307619Y-52434819D02*
X14021905Y-52434819D01*
X14021905Y-52434819D02*
X13926667Y-52387200D01*
X13926667Y-52387200D02*
X13879048Y-52339580D01*
X48244285Y-88124819D02*
X48244285Y-88839104D01*
X48244285Y-88839104D02*
X48196666Y-88981961D01*
X48196666Y-88981961D02*
X48101428Y-89077200D01*
X48101428Y-89077200D02*
X47958571Y-89124819D01*
X47958571Y-89124819D02*
X47863333Y-89124819D01*
X49244285Y-89124819D02*
X48672857Y-89124819D01*
X48958571Y-89124819D02*
X48958571Y-88124819D01*
X48958571Y-88124819D02*
X48863333Y-88267676D01*
X48863333Y-88267676D02*
X48768095Y-88362914D01*
X48768095Y-88362914D02*
X48672857Y-88410533D01*
X49863333Y-88124819D02*
X49958571Y-88124819D01*
X49958571Y-88124819D02*
X50053809Y-88172438D01*
X50053809Y-88172438D02*
X50101428Y-88220057D01*
X50101428Y-88220057D02*
X50149047Y-88315295D01*
X50149047Y-88315295D02*
X50196666Y-88505771D01*
X50196666Y-88505771D02*
X50196666Y-88743866D01*
X50196666Y-88743866D02*
X50149047Y-88934342D01*
X50149047Y-88934342D02*
X50101428Y-89029580D01*
X50101428Y-89029580D02*
X50053809Y-89077200D01*
X50053809Y-89077200D02*
X49958571Y-89124819D01*
X49958571Y-89124819D02*
X49863333Y-89124819D01*
X49863333Y-89124819D02*
X49768095Y-89077200D01*
X49768095Y-89077200D02*
X49720476Y-89029580D01*
X49720476Y-89029580D02*
X49672857Y-88934342D01*
X49672857Y-88934342D02*
X49625238Y-88743866D01*
X49625238Y-88743866D02*
X49625238Y-88505771D01*
X49625238Y-88505771D02*
X49672857Y-88315295D01*
X49672857Y-88315295D02*
X49720476Y-88220057D01*
X49720476Y-88220057D02*
X49768095Y-88172438D01*
X49768095Y-88172438D02*
X49863333Y-88124819D01*
X51053809Y-88458152D02*
X51053809Y-89124819D01*
X50815714Y-88077200D02*
X50577619Y-88791485D01*
X50577619Y-88791485D02*
X51196666Y-88791485D01*
D11*
X73117419Y-51244285D02*
X73926942Y-51244285D01*
X73926942Y-51244285D02*
X74022180Y-51196666D01*
X74022180Y-51196666D02*
X74069800Y-51149047D01*
X74069800Y-51149047D02*
X74117419Y-51053809D01*
X74117419Y-51053809D02*
X74117419Y-50863333D01*
X74117419Y-50863333D02*
X74069800Y-50768095D01*
X74069800Y-50768095D02*
X74022180Y-50720476D01*
X74022180Y-50720476D02*
X73926942Y-50672857D01*
X73926942Y-50672857D02*
X73117419Y-50672857D01*
X74117419Y-49672857D02*
X74117419Y-50244285D01*
X74117419Y-49958571D02*
X73117419Y-49958571D01*
X73117419Y-49958571D02*
X73260276Y-50053809D01*
X73260276Y-50053809D02*
X73355514Y-50149047D01*
X73355514Y-50149047D02*
X73403133Y-50244285D01*
X73117419Y-49053809D02*
X73117419Y-48958571D01*
X73117419Y-48958571D02*
X73165038Y-48863333D01*
X73165038Y-48863333D02*
X73212657Y-48815714D01*
X73212657Y-48815714D02*
X73307895Y-48768095D01*
X73307895Y-48768095D02*
X73498371Y-48720476D01*
X73498371Y-48720476D02*
X73736466Y-48720476D01*
X73736466Y-48720476D02*
X73926942Y-48768095D01*
X73926942Y-48768095D02*
X74022180Y-48815714D01*
X74022180Y-48815714D02*
X74069800Y-48863333D01*
X74069800Y-48863333D02*
X74117419Y-48958571D01*
X74117419Y-48958571D02*
X74117419Y-49053809D01*
X74117419Y-49053809D02*
X74069800Y-49149047D01*
X74069800Y-49149047D02*
X74022180Y-49196666D01*
X74022180Y-49196666D02*
X73926942Y-49244285D01*
X73926942Y-49244285D02*
X73736466Y-49291904D01*
X73736466Y-49291904D02*
X73498371Y-49291904D01*
X73498371Y-49291904D02*
X73307895Y-49244285D01*
X73307895Y-49244285D02*
X73212657Y-49196666D01*
X73212657Y-49196666D02*
X73165038Y-49149047D01*
X73165038Y-49149047D02*
X73117419Y-49053809D01*
X73212657Y-48339523D02*
X73165038Y-48291904D01*
X73165038Y-48291904D02*
X73117419Y-48196666D01*
X73117419Y-48196666D02*
X73117419Y-47958571D01*
X73117419Y-47958571D02*
X73165038Y-47863333D01*
X73165038Y-47863333D02*
X73212657Y-47815714D01*
X73212657Y-47815714D02*
X73307895Y-47768095D01*
X73307895Y-47768095D02*
X73403133Y-47768095D01*
X73403133Y-47768095D02*
X73545990Y-47815714D01*
X73545990Y-47815714D02*
X74117419Y-48387142D01*
X74117419Y-48387142D02*
X74117419Y-47768095D01*
X27397419Y-65214285D02*
X28206942Y-65214285D01*
X28206942Y-65214285D02*
X28302180Y-65166666D01*
X28302180Y-65166666D02*
X28349800Y-65119047D01*
X28349800Y-65119047D02*
X28397419Y-65023809D01*
X28397419Y-65023809D02*
X28397419Y-64833333D01*
X28397419Y-64833333D02*
X28349800Y-64738095D01*
X28349800Y-64738095D02*
X28302180Y-64690476D01*
X28302180Y-64690476D02*
X28206942Y-64642857D01*
X28206942Y-64642857D02*
X27397419Y-64642857D01*
X28397419Y-63642857D02*
X28397419Y-64214285D01*
X28397419Y-63928571D02*
X27397419Y-63928571D01*
X27397419Y-63928571D02*
X27540276Y-64023809D01*
X27540276Y-64023809D02*
X27635514Y-64119047D01*
X27635514Y-64119047D02*
X27683133Y-64214285D01*
X27397419Y-63023809D02*
X27397419Y-62928571D01*
X27397419Y-62928571D02*
X27445038Y-62833333D01*
X27445038Y-62833333D02*
X27492657Y-62785714D01*
X27492657Y-62785714D02*
X27587895Y-62738095D01*
X27587895Y-62738095D02*
X27778371Y-62690476D01*
X27778371Y-62690476D02*
X28016466Y-62690476D01*
X28016466Y-62690476D02*
X28206942Y-62738095D01*
X28206942Y-62738095D02*
X28302180Y-62785714D01*
X28302180Y-62785714D02*
X28349800Y-62833333D01*
X28349800Y-62833333D02*
X28397419Y-62928571D01*
X28397419Y-62928571D02*
X28397419Y-63023809D01*
X28397419Y-63023809D02*
X28349800Y-63119047D01*
X28349800Y-63119047D02*
X28302180Y-63166666D01*
X28302180Y-63166666D02*
X28206942Y-63214285D01*
X28206942Y-63214285D02*
X28016466Y-63261904D01*
X28016466Y-63261904D02*
X27778371Y-63261904D01*
X27778371Y-63261904D02*
X27587895Y-63214285D01*
X27587895Y-63214285D02*
X27492657Y-63166666D01*
X27492657Y-63166666D02*
X27445038Y-63119047D01*
X27445038Y-63119047D02*
X27397419Y-63023809D01*
X28397419Y-61738095D02*
X28397419Y-62309523D01*
X28397419Y-62023809D02*
X27397419Y-62023809D01*
X27397419Y-62023809D02*
X27540276Y-62119047D01*
X27540276Y-62119047D02*
X27635514Y-62214285D01*
X27635514Y-62214285D02*
X27683133Y-62309523D01*
D10*
X10144285Y-36054819D02*
X10144285Y-36769104D01*
X10144285Y-36769104D02*
X10096666Y-36911961D01*
X10096666Y-36911961D02*
X10001428Y-37007200D01*
X10001428Y-37007200D02*
X9858571Y-37054819D01*
X9858571Y-37054819D02*
X9763333Y-37054819D01*
X11144285Y-37054819D02*
X10572857Y-37054819D01*
X10858571Y-37054819D02*
X10858571Y-36054819D01*
X10858571Y-36054819D02*
X10763333Y-36197676D01*
X10763333Y-36197676D02*
X10668095Y-36292914D01*
X10668095Y-36292914D02*
X10572857Y-36340533D01*
X12096666Y-37054819D02*
X11525238Y-37054819D01*
X11810952Y-37054819D02*
X11810952Y-36054819D01*
X11810952Y-36054819D02*
X11715714Y-36197676D01*
X11715714Y-36197676D02*
X11620476Y-36292914D01*
X11620476Y-36292914D02*
X11525238Y-36340533D01*
X12668095Y-36483390D02*
X12572857Y-36435771D01*
X12572857Y-36435771D02*
X12525238Y-36388152D01*
X12525238Y-36388152D02*
X12477619Y-36292914D01*
X12477619Y-36292914D02*
X12477619Y-36245295D01*
X12477619Y-36245295D02*
X12525238Y-36150057D01*
X12525238Y-36150057D02*
X12572857Y-36102438D01*
X12572857Y-36102438D02*
X12668095Y-36054819D01*
X12668095Y-36054819D02*
X12858571Y-36054819D01*
X12858571Y-36054819D02*
X12953809Y-36102438D01*
X12953809Y-36102438D02*
X13001428Y-36150057D01*
X13001428Y-36150057D02*
X13049047Y-36245295D01*
X13049047Y-36245295D02*
X13049047Y-36292914D01*
X13049047Y-36292914D02*
X13001428Y-36388152D01*
X13001428Y-36388152D02*
X12953809Y-36435771D01*
X12953809Y-36435771D02*
X12858571Y-36483390D01*
X12858571Y-36483390D02*
X12668095Y-36483390D01*
X12668095Y-36483390D02*
X12572857Y-36531009D01*
X12572857Y-36531009D02*
X12525238Y-36578628D01*
X12525238Y-36578628D02*
X12477619Y-36673866D01*
X12477619Y-36673866D02*
X12477619Y-36864342D01*
X12477619Y-36864342D02*
X12525238Y-36959580D01*
X12525238Y-36959580D02*
X12572857Y-37007200D01*
X12572857Y-37007200D02*
X12668095Y-37054819D01*
X12668095Y-37054819D02*
X12858571Y-37054819D01*
X12858571Y-37054819D02*
X12953809Y-37007200D01*
X12953809Y-37007200D02*
X13001428Y-36959580D01*
X13001428Y-36959580D02*
X13049047Y-36864342D01*
X13049047Y-36864342D02*
X13049047Y-36673866D01*
X13049047Y-36673866D02*
X13001428Y-36578628D01*
X13001428Y-36578628D02*
X12953809Y-36531009D01*
X12953809Y-36531009D02*
X12858571Y-36483390D01*
X9744524Y-46824819D02*
X9744524Y-45824819D01*
X9744524Y-45824819D02*
X9982619Y-45824819D01*
X9982619Y-45824819D02*
X10125476Y-45872438D01*
X10125476Y-45872438D02*
X10220714Y-45967676D01*
X10220714Y-45967676D02*
X10268333Y-46062914D01*
X10268333Y-46062914D02*
X10315952Y-46253390D01*
X10315952Y-46253390D02*
X10315952Y-46396247D01*
X10315952Y-46396247D02*
X10268333Y-46586723D01*
X10268333Y-46586723D02*
X10220714Y-46681961D01*
X10220714Y-46681961D02*
X10125476Y-46777200D01*
X10125476Y-46777200D02*
X9982619Y-46824819D01*
X9982619Y-46824819D02*
X9744524Y-46824819D01*
X11268333Y-46824819D02*
X10696905Y-46824819D01*
X10982619Y-46824819D02*
X10982619Y-45824819D01*
X10982619Y-45824819D02*
X10887381Y-45967676D01*
X10887381Y-45967676D02*
X10792143Y-46062914D01*
X10792143Y-46062914D02*
X10696905Y-46110533D01*
X11887381Y-45824819D02*
X11982619Y-45824819D01*
X11982619Y-45824819D02*
X12077857Y-45872438D01*
X12077857Y-45872438D02*
X12125476Y-45920057D01*
X12125476Y-45920057D02*
X12173095Y-46015295D01*
X12173095Y-46015295D02*
X12220714Y-46205771D01*
X12220714Y-46205771D02*
X12220714Y-46443866D01*
X12220714Y-46443866D02*
X12173095Y-46634342D01*
X12173095Y-46634342D02*
X12125476Y-46729580D01*
X12125476Y-46729580D02*
X12077857Y-46777200D01*
X12077857Y-46777200D02*
X11982619Y-46824819D01*
X11982619Y-46824819D02*
X11887381Y-46824819D01*
X11887381Y-46824819D02*
X11792143Y-46777200D01*
X11792143Y-46777200D02*
X11744524Y-46729580D01*
X11744524Y-46729580D02*
X11696905Y-46634342D01*
X11696905Y-46634342D02*
X11649286Y-46443866D01*
X11649286Y-46443866D02*
X11649286Y-46205771D01*
X11649286Y-46205771D02*
X11696905Y-46015295D01*
X11696905Y-46015295D02*
X11744524Y-45920057D01*
X11744524Y-45920057D02*
X11792143Y-45872438D01*
X11792143Y-45872438D02*
X11887381Y-45824819D01*
X12601667Y-45920057D02*
X12649286Y-45872438D01*
X12649286Y-45872438D02*
X12744524Y-45824819D01*
X12744524Y-45824819D02*
X12982619Y-45824819D01*
X12982619Y-45824819D02*
X13077857Y-45872438D01*
X13077857Y-45872438D02*
X13125476Y-45920057D01*
X13125476Y-45920057D02*
X13173095Y-46015295D01*
X13173095Y-46015295D02*
X13173095Y-46110533D01*
X13173095Y-46110533D02*
X13125476Y-46253390D01*
X13125476Y-46253390D02*
X12554048Y-46824819D01*
X12554048Y-46824819D02*
X13173095Y-46824819D01*
X14983095Y-46654819D02*
X14983095Y-45654819D01*
X15554523Y-46654819D02*
X15125952Y-46083390D01*
X15554523Y-45654819D02*
X14983095Y-46226247D01*
X5230952Y-51084819D02*
X4897619Y-50608628D01*
X4659524Y-51084819D02*
X4659524Y-50084819D01*
X4659524Y-50084819D02*
X5040476Y-50084819D01*
X5040476Y-50084819D02*
X5135714Y-50132438D01*
X5135714Y-50132438D02*
X5183333Y-50180057D01*
X5183333Y-50180057D02*
X5230952Y-50275295D01*
X5230952Y-50275295D02*
X5230952Y-50418152D01*
X5230952Y-50418152D02*
X5183333Y-50513390D01*
X5183333Y-50513390D02*
X5135714Y-50561009D01*
X5135714Y-50561009D02*
X5040476Y-50608628D01*
X5040476Y-50608628D02*
X4659524Y-50608628D01*
X6183333Y-51084819D02*
X5611905Y-51084819D01*
X5897619Y-51084819D02*
X5897619Y-50084819D01*
X5897619Y-50084819D02*
X5802381Y-50227676D01*
X5802381Y-50227676D02*
X5707143Y-50322914D01*
X5707143Y-50322914D02*
X5611905Y-50370533D01*
X6802381Y-50084819D02*
X6897619Y-50084819D01*
X6897619Y-50084819D02*
X6992857Y-50132438D01*
X6992857Y-50132438D02*
X7040476Y-50180057D01*
X7040476Y-50180057D02*
X7088095Y-50275295D01*
X7088095Y-50275295D02*
X7135714Y-50465771D01*
X7135714Y-50465771D02*
X7135714Y-50703866D01*
X7135714Y-50703866D02*
X7088095Y-50894342D01*
X7088095Y-50894342D02*
X7040476Y-50989580D01*
X7040476Y-50989580D02*
X6992857Y-51037200D01*
X6992857Y-51037200D02*
X6897619Y-51084819D01*
X6897619Y-51084819D02*
X6802381Y-51084819D01*
X6802381Y-51084819D02*
X6707143Y-51037200D01*
X6707143Y-51037200D02*
X6659524Y-50989580D01*
X6659524Y-50989580D02*
X6611905Y-50894342D01*
X6611905Y-50894342D02*
X6564286Y-50703866D01*
X6564286Y-50703866D02*
X6564286Y-50465771D01*
X6564286Y-50465771D02*
X6611905Y-50275295D01*
X6611905Y-50275295D02*
X6659524Y-50180057D01*
X6659524Y-50180057D02*
X6707143Y-50132438D01*
X6707143Y-50132438D02*
X6802381Y-50084819D01*
X8088095Y-51084819D02*
X7516667Y-51084819D01*
X7802381Y-51084819D02*
X7802381Y-50084819D01*
X7802381Y-50084819D02*
X7707143Y-50227676D01*
X7707143Y-50227676D02*
X7611905Y-50322914D01*
X7611905Y-50322914D02*
X7516667Y-50370533D01*
D11*
X23587419Y-37274285D02*
X24396942Y-37274285D01*
X24396942Y-37274285D02*
X24492180Y-37226666D01*
X24492180Y-37226666D02*
X24539800Y-37179047D01*
X24539800Y-37179047D02*
X24587419Y-37083809D01*
X24587419Y-37083809D02*
X24587419Y-36893333D01*
X24587419Y-36893333D02*
X24539800Y-36798095D01*
X24539800Y-36798095D02*
X24492180Y-36750476D01*
X24492180Y-36750476D02*
X24396942Y-36702857D01*
X24396942Y-36702857D02*
X23587419Y-36702857D01*
X24587419Y-35702857D02*
X24587419Y-36274285D01*
X24587419Y-35988571D02*
X23587419Y-35988571D01*
X23587419Y-35988571D02*
X23730276Y-36083809D01*
X23730276Y-36083809D02*
X23825514Y-36179047D01*
X23825514Y-36179047D02*
X23873133Y-36274285D01*
X23587419Y-35083809D02*
X23587419Y-34988571D01*
X23587419Y-34988571D02*
X23635038Y-34893333D01*
X23635038Y-34893333D02*
X23682657Y-34845714D01*
X23682657Y-34845714D02*
X23777895Y-34798095D01*
X23777895Y-34798095D02*
X23968371Y-34750476D01*
X23968371Y-34750476D02*
X24206466Y-34750476D01*
X24206466Y-34750476D02*
X24396942Y-34798095D01*
X24396942Y-34798095D02*
X24492180Y-34845714D01*
X24492180Y-34845714D02*
X24539800Y-34893333D01*
X24539800Y-34893333D02*
X24587419Y-34988571D01*
X24587419Y-34988571D02*
X24587419Y-35083809D01*
X24587419Y-35083809D02*
X24539800Y-35179047D01*
X24539800Y-35179047D02*
X24492180Y-35226666D01*
X24492180Y-35226666D02*
X24396942Y-35274285D01*
X24396942Y-35274285D02*
X24206466Y-35321904D01*
X24206466Y-35321904D02*
X23968371Y-35321904D01*
X23968371Y-35321904D02*
X23777895Y-35274285D01*
X23777895Y-35274285D02*
X23682657Y-35226666D01*
X23682657Y-35226666D02*
X23635038Y-35179047D01*
X23635038Y-35179047D02*
X23587419Y-35083809D01*
X23920752Y-33893333D02*
X24587419Y-33893333D01*
X23539800Y-34131428D02*
X24254085Y-34369523D01*
X24254085Y-34369523D02*
X24254085Y-33750476D01*
D10*
X10144285Y-30974819D02*
X10144285Y-31689104D01*
X10144285Y-31689104D02*
X10096666Y-31831961D01*
X10096666Y-31831961D02*
X10001428Y-31927200D01*
X10001428Y-31927200D02*
X9858571Y-31974819D01*
X9858571Y-31974819D02*
X9763333Y-31974819D01*
X11144285Y-31974819D02*
X10572857Y-31974819D01*
X10858571Y-31974819D02*
X10858571Y-30974819D01*
X10858571Y-30974819D02*
X10763333Y-31117676D01*
X10763333Y-31117676D02*
X10668095Y-31212914D01*
X10668095Y-31212914D02*
X10572857Y-31260533D01*
X11525238Y-31070057D02*
X11572857Y-31022438D01*
X11572857Y-31022438D02*
X11668095Y-30974819D01*
X11668095Y-30974819D02*
X11906190Y-30974819D01*
X11906190Y-30974819D02*
X12001428Y-31022438D01*
X12001428Y-31022438D02*
X12049047Y-31070057D01*
X12049047Y-31070057D02*
X12096666Y-31165295D01*
X12096666Y-31165295D02*
X12096666Y-31260533D01*
X12096666Y-31260533D02*
X12049047Y-31403390D01*
X12049047Y-31403390D02*
X11477619Y-31974819D01*
X11477619Y-31974819D02*
X12096666Y-31974819D01*
X12715714Y-30974819D02*
X12810952Y-30974819D01*
X12810952Y-30974819D02*
X12906190Y-31022438D01*
X12906190Y-31022438D02*
X12953809Y-31070057D01*
X12953809Y-31070057D02*
X13001428Y-31165295D01*
X13001428Y-31165295D02*
X13049047Y-31355771D01*
X13049047Y-31355771D02*
X13049047Y-31593866D01*
X13049047Y-31593866D02*
X13001428Y-31784342D01*
X13001428Y-31784342D02*
X12953809Y-31879580D01*
X12953809Y-31879580D02*
X12906190Y-31927200D01*
X12906190Y-31927200D02*
X12810952Y-31974819D01*
X12810952Y-31974819D02*
X12715714Y-31974819D01*
X12715714Y-31974819D02*
X12620476Y-31927200D01*
X12620476Y-31927200D02*
X12572857Y-31879580D01*
X12572857Y-31879580D02*
X12525238Y-31784342D01*
X12525238Y-31784342D02*
X12477619Y-31593866D01*
X12477619Y-31593866D02*
X12477619Y-31355771D01*
X12477619Y-31355771D02*
X12525238Y-31165295D01*
X12525238Y-31165295D02*
X12572857Y-31070057D01*
X12572857Y-31070057D02*
X12620476Y-31022438D01*
X12620476Y-31022438D02*
X12715714Y-30974819D01*
X14814524Y-46794819D02*
X14814524Y-45794819D01*
X14814524Y-45794819D02*
X15052619Y-45794819D01*
X15052619Y-45794819D02*
X15195476Y-45842438D01*
X15195476Y-45842438D02*
X15290714Y-45937676D01*
X15290714Y-45937676D02*
X15338333Y-46032914D01*
X15338333Y-46032914D02*
X15385952Y-46223390D01*
X15385952Y-46223390D02*
X15385952Y-46366247D01*
X15385952Y-46366247D02*
X15338333Y-46556723D01*
X15338333Y-46556723D02*
X15290714Y-46651961D01*
X15290714Y-46651961D02*
X15195476Y-46747200D01*
X15195476Y-46747200D02*
X15052619Y-46794819D01*
X15052619Y-46794819D02*
X14814524Y-46794819D01*
X16338333Y-46794819D02*
X15766905Y-46794819D01*
X16052619Y-46794819D02*
X16052619Y-45794819D01*
X16052619Y-45794819D02*
X15957381Y-45937676D01*
X15957381Y-45937676D02*
X15862143Y-46032914D01*
X15862143Y-46032914D02*
X15766905Y-46080533D01*
X16957381Y-45794819D02*
X17052619Y-45794819D01*
X17052619Y-45794819D02*
X17147857Y-45842438D01*
X17147857Y-45842438D02*
X17195476Y-45890057D01*
X17195476Y-45890057D02*
X17243095Y-45985295D01*
X17243095Y-45985295D02*
X17290714Y-46175771D01*
X17290714Y-46175771D02*
X17290714Y-46413866D01*
X17290714Y-46413866D02*
X17243095Y-46604342D01*
X17243095Y-46604342D02*
X17195476Y-46699580D01*
X17195476Y-46699580D02*
X17147857Y-46747200D01*
X17147857Y-46747200D02*
X17052619Y-46794819D01*
X17052619Y-46794819D02*
X16957381Y-46794819D01*
X16957381Y-46794819D02*
X16862143Y-46747200D01*
X16862143Y-46747200D02*
X16814524Y-46699580D01*
X16814524Y-46699580D02*
X16766905Y-46604342D01*
X16766905Y-46604342D02*
X16719286Y-46413866D01*
X16719286Y-46413866D02*
X16719286Y-46175771D01*
X16719286Y-46175771D02*
X16766905Y-45985295D01*
X16766905Y-45985295D02*
X16814524Y-45890057D01*
X16814524Y-45890057D02*
X16862143Y-45842438D01*
X16862143Y-45842438D02*
X16957381Y-45794819D01*
X18243095Y-46794819D02*
X17671667Y-46794819D01*
X17957381Y-46794819D02*
X17957381Y-45794819D01*
X17957381Y-45794819D02*
X17862143Y-45937676D01*
X17862143Y-45937676D02*
X17766905Y-46032914D01*
X17766905Y-46032914D02*
X17671667Y-46080533D01*
X12433095Y-46964819D02*
X12433095Y-45964819D01*
X13004523Y-46964819D02*
X12575952Y-46393390D01*
X13004523Y-45964819D02*
X12433095Y-46536247D01*
X48244285Y-4304819D02*
X48244285Y-5019104D01*
X48244285Y-5019104D02*
X48196666Y-5161961D01*
X48196666Y-5161961D02*
X48101428Y-5257200D01*
X48101428Y-5257200D02*
X47958571Y-5304819D01*
X47958571Y-5304819D02*
X47863333Y-5304819D01*
X49244285Y-5304819D02*
X48672857Y-5304819D01*
X48958571Y-5304819D02*
X48958571Y-4304819D01*
X48958571Y-4304819D02*
X48863333Y-4447676D01*
X48863333Y-4447676D02*
X48768095Y-4542914D01*
X48768095Y-4542914D02*
X48672857Y-4590533D01*
X49863333Y-4304819D02*
X49958571Y-4304819D01*
X49958571Y-4304819D02*
X50053809Y-4352438D01*
X50053809Y-4352438D02*
X50101428Y-4400057D01*
X50101428Y-4400057D02*
X50149047Y-4495295D01*
X50149047Y-4495295D02*
X50196666Y-4685771D01*
X50196666Y-4685771D02*
X50196666Y-4923866D01*
X50196666Y-4923866D02*
X50149047Y-5114342D01*
X50149047Y-5114342D02*
X50101428Y-5209580D01*
X50101428Y-5209580D02*
X50053809Y-5257200D01*
X50053809Y-5257200D02*
X49958571Y-5304819D01*
X49958571Y-5304819D02*
X49863333Y-5304819D01*
X49863333Y-5304819D02*
X49768095Y-5257200D01*
X49768095Y-5257200D02*
X49720476Y-5209580D01*
X49720476Y-5209580D02*
X49672857Y-5114342D01*
X49672857Y-5114342D02*
X49625238Y-4923866D01*
X49625238Y-4923866D02*
X49625238Y-4685771D01*
X49625238Y-4685771D02*
X49672857Y-4495295D01*
X49672857Y-4495295D02*
X49720476Y-4400057D01*
X49720476Y-4400057D02*
X49768095Y-4352438D01*
X49768095Y-4352438D02*
X49863333Y-4304819D01*
X50530000Y-4304819D02*
X51149047Y-4304819D01*
X51149047Y-4304819D02*
X50815714Y-4685771D01*
X50815714Y-4685771D02*
X50958571Y-4685771D01*
X50958571Y-4685771D02*
X51053809Y-4733390D01*
X51053809Y-4733390D02*
X51101428Y-4781009D01*
X51101428Y-4781009D02*
X51149047Y-4876247D01*
X51149047Y-4876247D02*
X51149047Y-5114342D01*
X51149047Y-5114342D02*
X51101428Y-5209580D01*
X51101428Y-5209580D02*
X51053809Y-5257200D01*
X51053809Y-5257200D02*
X50958571Y-5304819D01*
X50958571Y-5304819D02*
X50672857Y-5304819D01*
X50672857Y-5304819D02*
X50577619Y-5257200D01*
X50577619Y-5257200D02*
X50530000Y-5209580D01*
X10144285Y-33514819D02*
X10144285Y-34229104D01*
X10144285Y-34229104D02*
X10096666Y-34371961D01*
X10096666Y-34371961D02*
X10001428Y-34467200D01*
X10001428Y-34467200D02*
X9858571Y-34514819D01*
X9858571Y-34514819D02*
X9763333Y-34514819D01*
X11144285Y-34514819D02*
X10572857Y-34514819D01*
X10858571Y-34514819D02*
X10858571Y-33514819D01*
X10858571Y-33514819D02*
X10763333Y-33657676D01*
X10763333Y-33657676D02*
X10668095Y-33752914D01*
X10668095Y-33752914D02*
X10572857Y-33800533D01*
X12096666Y-34514819D02*
X11525238Y-34514819D01*
X11810952Y-34514819D02*
X11810952Y-33514819D01*
X11810952Y-33514819D02*
X11715714Y-33657676D01*
X11715714Y-33657676D02*
X11620476Y-33752914D01*
X11620476Y-33752914D02*
X11525238Y-33800533D01*
X12572857Y-34514819D02*
X12763333Y-34514819D01*
X12763333Y-34514819D02*
X12858571Y-34467200D01*
X12858571Y-34467200D02*
X12906190Y-34419580D01*
X12906190Y-34419580D02*
X13001428Y-34276723D01*
X13001428Y-34276723D02*
X13049047Y-34086247D01*
X13049047Y-34086247D02*
X13049047Y-33705295D01*
X13049047Y-33705295D02*
X13001428Y-33610057D01*
X13001428Y-33610057D02*
X12953809Y-33562438D01*
X12953809Y-33562438D02*
X12858571Y-33514819D01*
X12858571Y-33514819D02*
X12668095Y-33514819D01*
X12668095Y-33514819D02*
X12572857Y-33562438D01*
X12572857Y-33562438D02*
X12525238Y-33610057D01*
X12525238Y-33610057D02*
X12477619Y-33705295D01*
X12477619Y-33705295D02*
X12477619Y-33943390D01*
X12477619Y-33943390D02*
X12525238Y-34038628D01*
X12525238Y-34038628D02*
X12572857Y-34086247D01*
X12572857Y-34086247D02*
X12668095Y-34133866D01*
X12668095Y-34133866D02*
X12858571Y-34133866D01*
X12858571Y-34133866D02*
X12953809Y-34086247D01*
X12953809Y-34086247D02*
X13001428Y-34038628D01*
X13001428Y-34038628D02*
X13049047Y-33943390D01*
X68564285Y-71614819D02*
X68564285Y-72329104D01*
X68564285Y-72329104D02*
X68516666Y-72471961D01*
X68516666Y-72471961D02*
X68421428Y-72567200D01*
X68421428Y-72567200D02*
X68278571Y-72614819D01*
X68278571Y-72614819D02*
X68183333Y-72614819D01*
X69564285Y-72614819D02*
X68992857Y-72614819D01*
X69278571Y-72614819D02*
X69278571Y-71614819D01*
X69278571Y-71614819D02*
X69183333Y-71757676D01*
X69183333Y-71757676D02*
X69088095Y-71852914D01*
X69088095Y-71852914D02*
X68992857Y-71900533D01*
X70516666Y-72614819D02*
X69945238Y-72614819D01*
X70230952Y-72614819D02*
X70230952Y-71614819D01*
X70230952Y-71614819D02*
X70135714Y-71757676D01*
X70135714Y-71757676D02*
X70040476Y-71852914D01*
X70040476Y-71852914D02*
X69945238Y-71900533D01*
X71373809Y-71614819D02*
X71183333Y-71614819D01*
X71183333Y-71614819D02*
X71088095Y-71662438D01*
X71088095Y-71662438D02*
X71040476Y-71710057D01*
X71040476Y-71710057D02*
X70945238Y-71852914D01*
X70945238Y-71852914D02*
X70897619Y-72043390D01*
X70897619Y-72043390D02*
X70897619Y-72424342D01*
X70897619Y-72424342D02*
X70945238Y-72519580D01*
X70945238Y-72519580D02*
X70992857Y-72567200D01*
X70992857Y-72567200D02*
X71088095Y-72614819D01*
X71088095Y-72614819D02*
X71278571Y-72614819D01*
X71278571Y-72614819D02*
X71373809Y-72567200D01*
X71373809Y-72567200D02*
X71421428Y-72519580D01*
X71421428Y-72519580D02*
X71469047Y-72424342D01*
X71469047Y-72424342D02*
X71469047Y-72186247D01*
X71469047Y-72186247D02*
X71421428Y-72091009D01*
X71421428Y-72091009D02*
X71373809Y-72043390D01*
X71373809Y-72043390D02*
X71278571Y-71995771D01*
X71278571Y-71995771D02*
X71088095Y-71995771D01*
X71088095Y-71995771D02*
X70992857Y-72043390D01*
X70992857Y-72043390D02*
X70945238Y-72091009D01*
X70945238Y-72091009D02*
X70897619Y-72186247D01*
X64754285Y-15734819D02*
X64754285Y-16449104D01*
X64754285Y-16449104D02*
X64706666Y-16591961D01*
X64706666Y-16591961D02*
X64611428Y-16687200D01*
X64611428Y-16687200D02*
X64468571Y-16734819D01*
X64468571Y-16734819D02*
X64373333Y-16734819D01*
X65754285Y-16734819D02*
X65182857Y-16734819D01*
X65468571Y-16734819D02*
X65468571Y-15734819D01*
X65468571Y-15734819D02*
X65373333Y-15877676D01*
X65373333Y-15877676D02*
X65278095Y-15972914D01*
X65278095Y-15972914D02*
X65182857Y-16020533D01*
X66373333Y-15734819D02*
X66468571Y-15734819D01*
X66468571Y-15734819D02*
X66563809Y-15782438D01*
X66563809Y-15782438D02*
X66611428Y-15830057D01*
X66611428Y-15830057D02*
X66659047Y-15925295D01*
X66659047Y-15925295D02*
X66706666Y-16115771D01*
X66706666Y-16115771D02*
X66706666Y-16353866D01*
X66706666Y-16353866D02*
X66659047Y-16544342D01*
X66659047Y-16544342D02*
X66611428Y-16639580D01*
X66611428Y-16639580D02*
X66563809Y-16687200D01*
X66563809Y-16687200D02*
X66468571Y-16734819D01*
X66468571Y-16734819D02*
X66373333Y-16734819D01*
X66373333Y-16734819D02*
X66278095Y-16687200D01*
X66278095Y-16687200D02*
X66230476Y-16639580D01*
X66230476Y-16639580D02*
X66182857Y-16544342D01*
X66182857Y-16544342D02*
X66135238Y-16353866D01*
X66135238Y-16353866D02*
X66135238Y-16115771D01*
X66135238Y-16115771D02*
X66182857Y-15925295D01*
X66182857Y-15925295D02*
X66230476Y-15830057D01*
X66230476Y-15830057D02*
X66278095Y-15782438D01*
X66278095Y-15782438D02*
X66373333Y-15734819D01*
X67659047Y-16734819D02*
X67087619Y-16734819D01*
X67373333Y-16734819D02*
X67373333Y-15734819D01*
X67373333Y-15734819D02*
X67278095Y-15877676D01*
X67278095Y-15877676D02*
X67182857Y-15972914D01*
X67182857Y-15972914D02*
X67087619Y-16020533D01*
X10144285Y-28434819D02*
X10144285Y-29149104D01*
X10144285Y-29149104D02*
X10096666Y-29291961D01*
X10096666Y-29291961D02*
X10001428Y-29387200D01*
X10001428Y-29387200D02*
X9858571Y-29434819D01*
X9858571Y-29434819D02*
X9763333Y-29434819D01*
X11144285Y-29434819D02*
X10572857Y-29434819D01*
X10858571Y-29434819D02*
X10858571Y-28434819D01*
X10858571Y-28434819D02*
X10763333Y-28577676D01*
X10763333Y-28577676D02*
X10668095Y-28672914D01*
X10668095Y-28672914D02*
X10572857Y-28720533D01*
X12096666Y-29434819D02*
X11525238Y-29434819D01*
X11810952Y-29434819D02*
X11810952Y-28434819D01*
X11810952Y-28434819D02*
X11715714Y-28577676D01*
X11715714Y-28577676D02*
X11620476Y-28672914D01*
X11620476Y-28672914D02*
X11525238Y-28720533D01*
X12430000Y-28434819D02*
X13096666Y-28434819D01*
X13096666Y-28434819D02*
X12668095Y-29434819D01*
D12*
%TO.C,J102*%
X31690000Y-20260000D02*
X31690000Y-20380000D01*
X31690000Y-20380000D02*
X34350000Y-20380000D01*
X33020000Y-17720000D02*
X34350000Y-17720000D01*
X34350000Y-17720000D02*
X34350000Y-19050000D01*
X34350000Y-20260000D02*
X34350000Y-20380000D01*
%TO.C,C101*%
X72145225Y-20115000D02*
X72645225Y-20115000D01*
X72395225Y-19865000D02*
X72395225Y-20365000D01*
X74950000Y-19010000D02*
X74950000Y-24170000D01*
X74990000Y-19010000D02*
X74990000Y-24170000D01*
X75030000Y-19011000D02*
X75030000Y-24169000D01*
X75070000Y-19012000D02*
X75070000Y-24168000D01*
X75110000Y-19014000D02*
X75110000Y-24166000D01*
X75150000Y-19017000D02*
X75150000Y-24163000D01*
X75190000Y-19021000D02*
X75190000Y-20550000D01*
X75190000Y-22630000D02*
X75190000Y-24159000D01*
X75230000Y-19025000D02*
X75230000Y-20550000D01*
X75230000Y-22630000D02*
X75230000Y-24155000D01*
X75270000Y-19029000D02*
X75270000Y-20550000D01*
X75270000Y-22630000D02*
X75270000Y-24151000D01*
X75310000Y-19034000D02*
X75310000Y-20550000D01*
X75310000Y-22630000D02*
X75310000Y-24146000D01*
X75350000Y-19040000D02*
X75350000Y-20550000D01*
X75350000Y-22630000D02*
X75350000Y-24140000D01*
X75390000Y-19047000D02*
X75390000Y-20550000D01*
X75390000Y-22630000D02*
X75390000Y-24133000D01*
X75430000Y-19054000D02*
X75430000Y-20550000D01*
X75430000Y-22630000D02*
X75430000Y-24126000D01*
X75470000Y-19062000D02*
X75470000Y-20550000D01*
X75470000Y-22630000D02*
X75470000Y-24118000D01*
X75510000Y-19070000D02*
X75510000Y-20550000D01*
X75510000Y-22630000D02*
X75510000Y-24110000D01*
X75550000Y-19079000D02*
X75550000Y-20550000D01*
X75550000Y-22630000D02*
X75550000Y-24101000D01*
X75590000Y-19089000D02*
X75590000Y-20550000D01*
X75590000Y-22630000D02*
X75590000Y-24091000D01*
X75630000Y-19099000D02*
X75630000Y-20550000D01*
X75630000Y-22630000D02*
X75630000Y-24081000D01*
X75671000Y-19110000D02*
X75671000Y-20550000D01*
X75671000Y-22630000D02*
X75671000Y-24070000D01*
X75711000Y-19122000D02*
X75711000Y-20550000D01*
X75711000Y-22630000D02*
X75711000Y-24058000D01*
X75751000Y-19135000D02*
X75751000Y-20550000D01*
X75751000Y-22630000D02*
X75751000Y-24045000D01*
X75791000Y-19148000D02*
X75791000Y-20550000D01*
X75791000Y-22630000D02*
X75791000Y-24032000D01*
X75831000Y-19162000D02*
X75831000Y-20550000D01*
X75831000Y-22630000D02*
X75831000Y-24018000D01*
X75871000Y-19176000D02*
X75871000Y-20550000D01*
X75871000Y-22630000D02*
X75871000Y-24004000D01*
X75911000Y-19192000D02*
X75911000Y-20550000D01*
X75911000Y-22630000D02*
X75911000Y-23988000D01*
X75951000Y-19208000D02*
X75951000Y-20550000D01*
X75951000Y-22630000D02*
X75951000Y-23972000D01*
X75991000Y-19225000D02*
X75991000Y-20550000D01*
X75991000Y-22630000D02*
X75991000Y-23955000D01*
X76031000Y-19242000D02*
X76031000Y-20550000D01*
X76031000Y-22630000D02*
X76031000Y-23938000D01*
X76071000Y-19261000D02*
X76071000Y-20550000D01*
X76071000Y-22630000D02*
X76071000Y-23919000D01*
X76111000Y-19280000D02*
X76111000Y-20550000D01*
X76111000Y-22630000D02*
X76111000Y-23900000D01*
X76151000Y-19300000D02*
X76151000Y-20550000D01*
X76151000Y-22630000D02*
X76151000Y-23880000D01*
X76191000Y-19322000D02*
X76191000Y-20550000D01*
X76191000Y-22630000D02*
X76191000Y-23858000D01*
X76231000Y-19343000D02*
X76231000Y-20550000D01*
X76231000Y-22630000D02*
X76231000Y-23837000D01*
X76271000Y-19366000D02*
X76271000Y-20550000D01*
X76271000Y-22630000D02*
X76271000Y-23814000D01*
X76311000Y-19390000D02*
X76311000Y-20550000D01*
X76311000Y-22630000D02*
X76311000Y-23790000D01*
X76351000Y-19415000D02*
X76351000Y-20550000D01*
X76351000Y-22630000D02*
X76351000Y-23765000D01*
X76391000Y-19441000D02*
X76391000Y-20550000D01*
X76391000Y-22630000D02*
X76391000Y-23739000D01*
X76431000Y-19468000D02*
X76431000Y-20550000D01*
X76431000Y-22630000D02*
X76431000Y-23712000D01*
X76471000Y-19495000D02*
X76471000Y-20550000D01*
X76471000Y-22630000D02*
X76471000Y-23685000D01*
X76511000Y-19525000D02*
X76511000Y-20550000D01*
X76511000Y-22630000D02*
X76511000Y-23655000D01*
X76551000Y-19555000D02*
X76551000Y-20550000D01*
X76551000Y-22630000D02*
X76551000Y-23625000D01*
X76591000Y-19586000D02*
X76591000Y-20550000D01*
X76591000Y-22630000D02*
X76591000Y-23594000D01*
X76631000Y-19619000D02*
X76631000Y-20550000D01*
X76631000Y-22630000D02*
X76631000Y-23561000D01*
X76671000Y-19653000D02*
X76671000Y-20550000D01*
X76671000Y-22630000D02*
X76671000Y-23527000D01*
X76711000Y-19689000D02*
X76711000Y-20550000D01*
X76711000Y-22630000D02*
X76711000Y-23491000D01*
X76751000Y-19726000D02*
X76751000Y-20550000D01*
X76751000Y-22630000D02*
X76751000Y-23454000D01*
X76791000Y-19764000D02*
X76791000Y-20550000D01*
X76791000Y-22630000D02*
X76791000Y-23416000D01*
X76831000Y-19805000D02*
X76831000Y-20550000D01*
X76831000Y-22630000D02*
X76831000Y-23375000D01*
X76871000Y-19847000D02*
X76871000Y-20550000D01*
X76871000Y-22630000D02*
X76871000Y-23333000D01*
X76911000Y-19891000D02*
X76911000Y-20550000D01*
X76911000Y-22630000D02*
X76911000Y-23289000D01*
X76951000Y-19937000D02*
X76951000Y-20550000D01*
X76951000Y-22630000D02*
X76951000Y-23243000D01*
X76991000Y-19985000D02*
X76991000Y-20550000D01*
X76991000Y-22630000D02*
X76991000Y-23195000D01*
X77031000Y-20036000D02*
X77031000Y-20550000D01*
X77031000Y-22630000D02*
X77031000Y-23144000D01*
X77071000Y-20090000D02*
X77071000Y-20550000D01*
X77071000Y-22630000D02*
X77071000Y-23090000D01*
X77111000Y-20147000D02*
X77111000Y-20550000D01*
X77111000Y-22630000D02*
X77111000Y-23033000D01*
X77151000Y-20207000D02*
X77151000Y-20550000D01*
X77151000Y-22630000D02*
X77151000Y-22973000D01*
X77191000Y-20271000D02*
X77191000Y-20550000D01*
X77191000Y-22630000D02*
X77191000Y-22909000D01*
X77231000Y-20339000D02*
X77231000Y-20550000D01*
X77231000Y-22630000D02*
X77231000Y-22841000D01*
X77271000Y-20412000D02*
X77271000Y-22768000D01*
X77311000Y-20492000D02*
X77311000Y-22688000D01*
X77351000Y-20579000D02*
X77351000Y-22601000D01*
X77391000Y-20675000D02*
X77391000Y-22505000D01*
X77431000Y-20785000D02*
X77431000Y-22395000D01*
X77471000Y-20913000D02*
X77471000Y-22267000D01*
X77511000Y-21072000D02*
X77511000Y-22108000D01*
X77551000Y-21306000D02*
X77551000Y-21874000D01*
X77570000Y-21590000D02*
G75*
G03*
X72330000Y-21590000I-2620000J0D01*
G01*
X72330000Y-21590000D02*
G75*
G03*
X77570000Y-21590000I2620000J0D01*
G01*
%TO.C,C103*%
X3000560Y-57115000D02*
X4800560Y-57115000D01*
X3900560Y-56215000D02*
X3900560Y-58015000D01*
X12760000Y-53149000D02*
X12760000Y-71311000D01*
X12800000Y-53150000D02*
X12800000Y-71310000D01*
X12840000Y-53150000D02*
X12840000Y-71310000D01*
X12880000Y-53150000D02*
X12880000Y-71310000D01*
X12920000Y-53151000D02*
X12920000Y-71309000D01*
X12960000Y-53152000D02*
X12960000Y-71308000D01*
X13000000Y-53153000D02*
X13000000Y-71307000D01*
X13040000Y-53154000D02*
X13040000Y-71306000D01*
X13080000Y-53155000D02*
X13080000Y-71305000D01*
X13120000Y-53157000D02*
X13120000Y-71303000D01*
X13160000Y-53158000D02*
X13160000Y-71302000D01*
X13200000Y-53160000D02*
X13200000Y-71300000D01*
X13240000Y-53162000D02*
X13240000Y-71298000D01*
X13280000Y-53164000D02*
X13280000Y-71296000D01*
X13320000Y-53167000D02*
X13320000Y-71293000D01*
X13360000Y-53169000D02*
X13360000Y-71291000D01*
X13400000Y-53172000D02*
X13400000Y-71288000D01*
X13440000Y-53175000D02*
X13440000Y-71285000D01*
X13481000Y-53178000D02*
X13481000Y-71282000D01*
X13521000Y-53181000D02*
X13521000Y-71279000D01*
X13561000Y-53185000D02*
X13561000Y-71275000D01*
X13601000Y-53188000D02*
X13601000Y-71272000D01*
X13641000Y-53192000D02*
X13641000Y-71268000D01*
X13681000Y-53196000D02*
X13681000Y-71264000D01*
X13721000Y-53200000D02*
X13721000Y-71260000D01*
X13761000Y-53204000D02*
X13761000Y-71256000D01*
X13801000Y-53209000D02*
X13801000Y-71251000D01*
X13841000Y-53214000D02*
X13841000Y-71246000D01*
X13881000Y-53219000D02*
X13881000Y-71241000D01*
X13921000Y-53224000D02*
X13921000Y-71236000D01*
X13961000Y-53229000D02*
X13961000Y-71231000D01*
X14001000Y-53234000D02*
X14001000Y-71226000D01*
X14041000Y-53240000D02*
X14041000Y-71220000D01*
X14081000Y-53246000D02*
X14081000Y-71214000D01*
X14121000Y-53251000D02*
X14121000Y-71209000D01*
X14161000Y-53258000D02*
X14161000Y-71202000D01*
X14201000Y-53264000D02*
X14201000Y-71196000D01*
X14241000Y-53270000D02*
X14241000Y-71190000D01*
X14281000Y-53277000D02*
X14281000Y-71183000D01*
X14321000Y-53284000D02*
X14321000Y-71176000D01*
X14361000Y-53291000D02*
X14361000Y-71169000D01*
X14401000Y-53298000D02*
X14401000Y-71162000D01*
X14441000Y-53306000D02*
X14441000Y-71154000D01*
X14481000Y-53313000D02*
X14481000Y-71147000D01*
X14521000Y-53321000D02*
X14521000Y-71139000D01*
X14561000Y-53329000D02*
X14561000Y-71131000D01*
X14601000Y-53337000D02*
X14601000Y-71123000D01*
X14641000Y-53345000D02*
X14641000Y-71115000D01*
X14681000Y-53354000D02*
X14681000Y-71106000D01*
X14721000Y-53363000D02*
X14721000Y-71097000D01*
X14761000Y-53372000D02*
X14761000Y-71088000D01*
X14801000Y-53381000D02*
X14801000Y-71079000D01*
X14841000Y-53390000D02*
X14841000Y-71070000D01*
X14881000Y-53399000D02*
X14881000Y-71061000D01*
X14921000Y-53409000D02*
X14921000Y-71051000D01*
X14961000Y-53419000D02*
X14961000Y-71041000D01*
X15001000Y-53429000D02*
X15001000Y-71031000D01*
X15041000Y-53439000D02*
X15041000Y-71021000D01*
X15081000Y-53450000D02*
X15081000Y-60790000D01*
X15081000Y-63670000D02*
X15081000Y-71010000D01*
X15121000Y-53460000D02*
X15121000Y-60790000D01*
X15121000Y-63670000D02*
X15121000Y-71000000D01*
X15161000Y-53471000D02*
X15161000Y-60790000D01*
X15161000Y-63670000D02*
X15161000Y-70989000D01*
X15201000Y-53482000D02*
X15201000Y-60790000D01*
X15201000Y-63670000D02*
X15201000Y-70978000D01*
X15241000Y-53493000D02*
X15241000Y-60790000D01*
X15241000Y-63670000D02*
X15241000Y-70967000D01*
X15281000Y-53505000D02*
X15281000Y-60790000D01*
X15281000Y-63670000D02*
X15281000Y-70955000D01*
X15321000Y-53516000D02*
X15321000Y-60790000D01*
X15321000Y-63670000D02*
X15321000Y-70944000D01*
X15361000Y-53528000D02*
X15361000Y-60790000D01*
X15361000Y-63670000D02*
X15361000Y-70932000D01*
X15401000Y-53540000D02*
X15401000Y-60790000D01*
X15401000Y-63670000D02*
X15401000Y-70920000D01*
X15441000Y-53552000D02*
X15441000Y-60790000D01*
X15441000Y-63670000D02*
X15441000Y-70908000D01*
X15481000Y-53565000D02*
X15481000Y-60790000D01*
X15481000Y-63670000D02*
X15481000Y-70895000D01*
X15521000Y-53577000D02*
X15521000Y-60790000D01*
X15521000Y-63670000D02*
X15521000Y-70883000D01*
X15561000Y-53590000D02*
X15561000Y-60790000D01*
X15561000Y-63670000D02*
X15561000Y-70870000D01*
X15601000Y-53603000D02*
X15601000Y-60790000D01*
X15601000Y-63670000D02*
X15601000Y-70857000D01*
X15641000Y-53616000D02*
X15641000Y-60790000D01*
X15641000Y-63670000D02*
X15641000Y-70844000D01*
X15681000Y-53630000D02*
X15681000Y-60790000D01*
X15681000Y-63670000D02*
X15681000Y-70830000D01*
X15721000Y-53643000D02*
X15721000Y-60790000D01*
X15721000Y-63670000D02*
X15721000Y-70817000D01*
X15761000Y-53657000D02*
X15761000Y-60790000D01*
X15761000Y-63670000D02*
X15761000Y-70803000D01*
X15801000Y-53671000D02*
X15801000Y-60790000D01*
X15801000Y-63670000D02*
X15801000Y-70789000D01*
X15841000Y-53685000D02*
X15841000Y-60790000D01*
X15841000Y-63670000D02*
X15841000Y-70775000D01*
X15881000Y-53700000D02*
X15881000Y-60790000D01*
X15881000Y-63670000D02*
X15881000Y-70760000D01*
X15921000Y-53714000D02*
X15921000Y-60790000D01*
X15921000Y-63670000D02*
X15921000Y-70746000D01*
X15961000Y-53729000D02*
X15961000Y-60790000D01*
X15961000Y-63670000D02*
X15961000Y-70731000D01*
X16001000Y-53744000D02*
X16001000Y-60790000D01*
X16001000Y-63670000D02*
X16001000Y-70716000D01*
X16041000Y-53760000D02*
X16041000Y-60790000D01*
X16041000Y-63670000D02*
X16041000Y-70700000D01*
X16081000Y-53775000D02*
X16081000Y-60790000D01*
X16081000Y-63670000D02*
X16081000Y-70685000D01*
X16121000Y-53791000D02*
X16121000Y-60790000D01*
X16121000Y-63670000D02*
X16121000Y-70669000D01*
X16161000Y-53807000D02*
X16161000Y-60790000D01*
X16161000Y-63670000D02*
X16161000Y-70653000D01*
X16201000Y-53823000D02*
X16201000Y-60790000D01*
X16201000Y-63670000D02*
X16201000Y-70637000D01*
X16241000Y-53840000D02*
X16241000Y-60790000D01*
X16241000Y-63670000D02*
X16241000Y-70620000D01*
X16281000Y-53856000D02*
X16281000Y-60790000D01*
X16281000Y-63670000D02*
X16281000Y-70604000D01*
X16321000Y-53873000D02*
X16321000Y-60790000D01*
X16321000Y-63670000D02*
X16321000Y-70587000D01*
X16361000Y-53890000D02*
X16361000Y-60790000D01*
X16361000Y-63670000D02*
X16361000Y-70570000D01*
X16401000Y-53907000D02*
X16401000Y-60790000D01*
X16401000Y-63670000D02*
X16401000Y-70553000D01*
X16441000Y-53925000D02*
X16441000Y-60790000D01*
X16441000Y-63670000D02*
X16441000Y-70535000D01*
X16481000Y-53943000D02*
X16481000Y-60790000D01*
X16481000Y-63670000D02*
X16481000Y-70517000D01*
X16521000Y-53961000D02*
X16521000Y-60790000D01*
X16521000Y-63670000D02*
X16521000Y-70499000D01*
X16561000Y-53979000D02*
X16561000Y-60790000D01*
X16561000Y-63670000D02*
X16561000Y-70481000D01*
X16601000Y-53997000D02*
X16601000Y-60790000D01*
X16601000Y-63670000D02*
X16601000Y-70463000D01*
X16641000Y-54016000D02*
X16641000Y-60790000D01*
X16641000Y-63670000D02*
X16641000Y-70444000D01*
X16681000Y-54035000D02*
X16681000Y-60790000D01*
X16681000Y-63670000D02*
X16681000Y-70425000D01*
X16721000Y-54054000D02*
X16721000Y-60790000D01*
X16721000Y-63670000D02*
X16721000Y-70406000D01*
X16761000Y-54074000D02*
X16761000Y-60790000D01*
X16761000Y-63670000D02*
X16761000Y-70386000D01*
X16801000Y-54093000D02*
X16801000Y-60790000D01*
X16801000Y-63670000D02*
X16801000Y-70367000D01*
X16841000Y-54113000D02*
X16841000Y-60790000D01*
X16841000Y-63670000D02*
X16841000Y-70347000D01*
X16881000Y-54133000D02*
X16881000Y-60790000D01*
X16881000Y-63670000D02*
X16881000Y-70327000D01*
X16921000Y-54154000D02*
X16921000Y-60790000D01*
X16921000Y-63670000D02*
X16921000Y-70306000D01*
X16961000Y-54174000D02*
X16961000Y-60790000D01*
X16961000Y-63670000D02*
X16961000Y-70286000D01*
X17001000Y-54195000D02*
X17001000Y-60790000D01*
X17001000Y-63670000D02*
X17001000Y-70265000D01*
X17041000Y-54216000D02*
X17041000Y-60790000D01*
X17041000Y-63670000D02*
X17041000Y-70244000D01*
X17081000Y-54238000D02*
X17081000Y-60790000D01*
X17081000Y-63670000D02*
X17081000Y-70222000D01*
X17121000Y-54259000D02*
X17121000Y-60790000D01*
X17121000Y-63670000D02*
X17121000Y-70201000D01*
X17161000Y-54281000D02*
X17161000Y-60790000D01*
X17161000Y-63670000D02*
X17161000Y-70179000D01*
X17201000Y-54303000D02*
X17201000Y-60790000D01*
X17201000Y-63670000D02*
X17201000Y-70157000D01*
X17241000Y-54326000D02*
X17241000Y-60790000D01*
X17241000Y-63670000D02*
X17241000Y-70134000D01*
X17281000Y-54348000D02*
X17281000Y-60790000D01*
X17281000Y-63670000D02*
X17281000Y-70112000D01*
X17321000Y-54371000D02*
X17321000Y-60790000D01*
X17321000Y-63670000D02*
X17321000Y-70089000D01*
X17361000Y-54395000D02*
X17361000Y-60790000D01*
X17361000Y-63670000D02*
X17361000Y-70065000D01*
X17401000Y-54418000D02*
X17401000Y-60790000D01*
X17401000Y-63670000D02*
X17401000Y-70042000D01*
X17441000Y-54442000D02*
X17441000Y-60790000D01*
X17441000Y-63670000D02*
X17441000Y-70018000D01*
X17481000Y-54466000D02*
X17481000Y-60790000D01*
X17481000Y-63670000D02*
X17481000Y-69994000D01*
X17521000Y-54490000D02*
X17521000Y-60790000D01*
X17521000Y-63670000D02*
X17521000Y-69970000D01*
X17561000Y-54515000D02*
X17561000Y-60790000D01*
X17561000Y-63670000D02*
X17561000Y-69945000D01*
X17601000Y-54540000D02*
X17601000Y-60790000D01*
X17601000Y-63670000D02*
X17601000Y-69920000D01*
X17641000Y-54565000D02*
X17641000Y-60790000D01*
X17641000Y-63670000D02*
X17641000Y-69895000D01*
X17681000Y-54590000D02*
X17681000Y-60790000D01*
X17681000Y-63670000D02*
X17681000Y-69870000D01*
X17721000Y-54616000D02*
X17721000Y-60790000D01*
X17721000Y-63670000D02*
X17721000Y-69844000D01*
X17761000Y-54642000D02*
X17761000Y-60790000D01*
X17761000Y-63670000D02*
X17761000Y-69818000D01*
X17801000Y-54669000D02*
X17801000Y-60790000D01*
X17801000Y-63670000D02*
X17801000Y-69791000D01*
X17841000Y-54695000D02*
X17841000Y-60790000D01*
X17841000Y-63670000D02*
X17841000Y-69765000D01*
X17881000Y-54722000D02*
X17881000Y-60790000D01*
X17881000Y-63670000D02*
X17881000Y-69738000D01*
X17921000Y-54750000D02*
X17921000Y-60790000D01*
X17921000Y-63670000D02*
X17921000Y-69710000D01*
X17961000Y-54777000D02*
X17961000Y-69683000D01*
X18001000Y-54805000D02*
X18001000Y-69655000D01*
X18041000Y-54833000D02*
X18041000Y-69627000D01*
X18081000Y-54862000D02*
X18081000Y-69598000D01*
X18121000Y-54891000D02*
X18121000Y-69569000D01*
X18161000Y-54920000D02*
X18161000Y-69540000D01*
X18201000Y-54950000D02*
X18201000Y-69510000D01*
X18241000Y-54980000D02*
X18241000Y-69480000D01*
X18281000Y-55010000D02*
X18281000Y-69450000D01*
X18321000Y-55040000D02*
X18321000Y-69420000D01*
X18361000Y-55071000D02*
X18361000Y-69389000D01*
X18401000Y-55103000D02*
X18401000Y-69357000D01*
X18441000Y-55134000D02*
X18441000Y-69326000D01*
X18481000Y-55166000D02*
X18481000Y-69294000D01*
X18521000Y-55199000D02*
X18521000Y-69261000D01*
X18561000Y-55231000D02*
X18561000Y-69229000D01*
X18601000Y-55265000D02*
X18601000Y-69195000D01*
X18641000Y-55298000D02*
X18641000Y-69162000D01*
X18681000Y-55332000D02*
X18681000Y-69128000D01*
X18721000Y-55366000D02*
X18721000Y-69094000D01*
X18761000Y-55401000D02*
X18761000Y-69059000D01*
X18801000Y-55436000D02*
X18801000Y-69024000D01*
X18841000Y-55472000D02*
X18841000Y-68988000D01*
X18881000Y-55508000D02*
X18881000Y-68952000D01*
X18921000Y-55544000D02*
X18921000Y-68916000D01*
X18961000Y-55581000D02*
X18961000Y-68879000D01*
X19001000Y-55618000D02*
X19001000Y-68842000D01*
X19041000Y-55656000D02*
X19041000Y-68804000D01*
X19081000Y-55694000D02*
X19081000Y-68766000D01*
X19121000Y-55733000D02*
X19121000Y-68727000D01*
X19161000Y-55772000D02*
X19161000Y-68688000D01*
X19201000Y-55812000D02*
X19201000Y-68648000D01*
X19241000Y-55852000D02*
X19241000Y-68608000D01*
X19281000Y-55893000D02*
X19281000Y-68567000D01*
X19321000Y-55934000D02*
X19321000Y-68526000D01*
X19361000Y-55976000D02*
X19361000Y-68484000D01*
X19401000Y-56018000D02*
X19401000Y-68442000D01*
X19441000Y-56060000D02*
X19441000Y-68400000D01*
X19481000Y-56104000D02*
X19481000Y-68356000D01*
X19521000Y-56148000D02*
X19521000Y-68312000D01*
X19561000Y-56192000D02*
X19561000Y-68268000D01*
X19601000Y-56237000D02*
X19601000Y-68223000D01*
X19641000Y-56283000D02*
X19641000Y-68177000D01*
X19681000Y-56329000D02*
X19681000Y-68131000D01*
X19721000Y-56376000D02*
X19721000Y-68084000D01*
X19761000Y-56424000D02*
X19761000Y-68036000D01*
X19801000Y-56472000D02*
X19801000Y-67988000D01*
X19841000Y-56521000D02*
X19841000Y-67939000D01*
X19881000Y-56570000D02*
X19881000Y-67890000D01*
X19921000Y-56621000D02*
X19921000Y-67839000D01*
X19961000Y-56672000D02*
X19961000Y-67788000D01*
X20001000Y-56724000D02*
X20001000Y-67736000D01*
X20041000Y-56776000D02*
X20041000Y-67684000D01*
X20081000Y-56830000D02*
X20081000Y-67630000D01*
X20121000Y-56884000D02*
X20121000Y-67576000D01*
X20161000Y-56939000D02*
X20161000Y-67521000D01*
X20201000Y-56995000D02*
X20201000Y-67465000D01*
X20241000Y-57052000D02*
X20241000Y-67408000D01*
X20281000Y-57110000D02*
X20281000Y-67350000D01*
X20321000Y-57168000D02*
X20321000Y-67292000D01*
X20361000Y-57228000D02*
X20361000Y-67232000D01*
X20401000Y-57289000D02*
X20401000Y-67171000D01*
X20441000Y-57351000D02*
X20441000Y-67109000D01*
X20481000Y-57414000D02*
X20481000Y-67046000D01*
X20521000Y-57478000D02*
X20521000Y-66982000D01*
X20561000Y-57544000D02*
X20561000Y-66916000D01*
X20601000Y-57610000D02*
X20601000Y-66850000D01*
X20641000Y-57678000D02*
X20641000Y-66782000D01*
X20681000Y-57748000D02*
X20681000Y-66712000D01*
X20721000Y-57818000D02*
X20721000Y-66642000D01*
X20761000Y-57891000D02*
X20761000Y-66569000D01*
X20801000Y-57965000D02*
X20801000Y-66495000D01*
X20841000Y-58040000D02*
X20841000Y-66420000D01*
X20881000Y-58117000D02*
X20881000Y-66343000D01*
X20921000Y-58197000D02*
X20921000Y-66263000D01*
X20960000Y-58278000D02*
X20960000Y-66182000D01*
X21000000Y-58361000D02*
X21000000Y-66099000D01*
X21040000Y-58446000D02*
X21040000Y-66014000D01*
X21080000Y-58534000D02*
X21080000Y-65926000D01*
X21120000Y-58625000D02*
X21120000Y-65835000D01*
X21160000Y-58718000D02*
X21160000Y-65742000D01*
X21200000Y-58814000D02*
X21200000Y-65646000D01*
X21240000Y-58913000D02*
X21240000Y-65547000D01*
X21280000Y-59016000D02*
X21280000Y-65444000D01*
X21320000Y-59123000D02*
X21320000Y-65337000D01*
X21360000Y-59234000D02*
X21360000Y-65226000D01*
X21400000Y-59350000D02*
X21400000Y-65110000D01*
X21440000Y-59471000D02*
X21440000Y-64989000D01*
X21480000Y-59598000D02*
X21480000Y-64862000D01*
X21520000Y-59732000D02*
X21520000Y-64728000D01*
X21560000Y-59875000D02*
X21560000Y-64585000D01*
X21600000Y-60027000D02*
X21600000Y-64433000D01*
X21640000Y-60191000D02*
X21640000Y-64269000D01*
X21680000Y-60370000D02*
X21680000Y-64090000D01*
X21720000Y-60569000D02*
X21720000Y-63891000D01*
X21760000Y-60795000D02*
X21760000Y-63665000D01*
X21800000Y-61064000D02*
X21800000Y-63396000D01*
X21840000Y-61416000D02*
X21840000Y-63044000D01*
X21880000Y-62190000D02*
X21880000Y-62270000D01*
X21880000Y-62230000D02*
G75*
G03*
X3640000Y-62230000I-9120000J0D01*
G01*
X3640000Y-62230000D02*
G75*
G03*
X21880000Y-62230000I9120000J0D01*
G01*
%TO.C,J104*%
X48200000Y-92650000D02*
X48200000Y-92770000D01*
X48200000Y-92770000D02*
X50860000Y-92770000D01*
X49530000Y-90110000D02*
X50860000Y-90110000D01*
X50860000Y-90110000D02*
X50860000Y-91440000D01*
X50860000Y-92650000D02*
X50860000Y-92770000D01*
D11*
%TO.C,U102*%
X63500000Y-72390000D02*
X86360000Y-72390000D01*
X86360000Y-72390000D02*
X86360000Y-26670000D01*
X86360000Y-26670000D02*
X63500000Y-26670000D01*
X63500000Y-26670000D02*
X63500000Y-72390000D01*
%TO.C,U101*%
X22860000Y-81280000D02*
X35560000Y-81280000D01*
X35560000Y-81280000D02*
X35560000Y-45720000D01*
X35560000Y-45720000D02*
X22860000Y-45720000D01*
X22860000Y-45720000D02*
X22860000Y-81280000D01*
D12*
%TO.C,J118*%
X10100000Y-40580000D02*
X10100000Y-40700000D01*
X10100000Y-40700000D02*
X12760000Y-40700000D01*
X11430000Y-38040000D02*
X12760000Y-38040000D01*
X12760000Y-38040000D02*
X12760000Y-39370000D01*
X12760000Y-40580000D02*
X12760000Y-40700000D01*
%TO.C,D102*%
X14255000Y-44450000D02*
X13075000Y-44450000D01*
X13075000Y-45370000D02*
X13075000Y-43530000D01*
X13075000Y-43530000D02*
X9795000Y-43530000D01*
X12619000Y-45370000D02*
X12619000Y-43530000D01*
X12499000Y-45370000D02*
X12499000Y-43530000D01*
X12379000Y-45370000D02*
X12379000Y-43530000D01*
X9795000Y-45370000D02*
X13075000Y-45370000D01*
X9795000Y-43530000D02*
X9795000Y-45370000D01*
X8615000Y-44450000D02*
X9795000Y-44450000D01*
%TO.C,R101*%
X9620000Y-49630000D02*
X3080000Y-49630000D01*
X9620000Y-49300000D02*
X9620000Y-49630000D01*
X9620000Y-47220000D02*
X9620000Y-46890000D01*
X9620000Y-46890000D02*
X3080000Y-46890000D01*
X3080000Y-49630000D02*
X3080000Y-49300000D01*
X3080000Y-46890000D02*
X3080000Y-47220000D01*
D11*
%TO.C,U104*%
X33020000Y-45720000D02*
X15240000Y-45720000D01*
X15240000Y-45720000D02*
X15240000Y-25400000D01*
X15240000Y-25400000D02*
X33020000Y-25400000D01*
X33020000Y-25400000D02*
X33020000Y-45720000D01*
D12*
%TO.C,J120*%
X10100000Y-35500000D02*
X10100000Y-35620000D01*
X10100000Y-35620000D02*
X12760000Y-35620000D01*
X11430000Y-32960000D02*
X12760000Y-32960000D01*
X12760000Y-32960000D02*
X12760000Y-34290000D01*
X12760000Y-35500000D02*
X12760000Y-35620000D01*
%TO.C,D101*%
X13685000Y-48260000D02*
X14865000Y-48260000D01*
X14865000Y-47340000D02*
X14865000Y-49180000D01*
X14865000Y-49180000D02*
X18145000Y-49180000D01*
X15321000Y-47340000D02*
X15321000Y-49180000D01*
X15441000Y-47340000D02*
X15441000Y-49180000D01*
X15561000Y-47340000D02*
X15561000Y-49180000D01*
X18145000Y-47340000D02*
X14865000Y-47340000D01*
X18145000Y-49180000D02*
X18145000Y-47340000D01*
X19325000Y-48260000D02*
X18145000Y-48260000D01*
%TO.C,J103*%
X48200000Y-8830000D02*
X48200000Y-8950000D01*
X48200000Y-8950000D02*
X50860000Y-8950000D01*
X49530000Y-6290000D02*
X50860000Y-6290000D01*
X50860000Y-6290000D02*
X50860000Y-7620000D01*
X50860000Y-8830000D02*
X50860000Y-8950000D01*
%TO.C,J119*%
X10100000Y-38040000D02*
X10100000Y-38160000D01*
X10100000Y-38160000D02*
X12760000Y-38160000D01*
X11430000Y-35500000D02*
X12760000Y-35500000D01*
X12760000Y-35500000D02*
X12760000Y-36830000D01*
X12760000Y-38040000D02*
X12760000Y-38160000D01*
%TO.C,J116*%
X68520000Y-76140000D02*
X68520000Y-76260000D01*
X68520000Y-76260000D02*
X71180000Y-76260000D01*
X69850000Y-73600000D02*
X71180000Y-73600000D01*
X71180000Y-73600000D02*
X71180000Y-74930000D01*
X71180000Y-76140000D02*
X71180000Y-76260000D01*
%TO.C,J101*%
X64710000Y-20260000D02*
X64710000Y-20380000D01*
X64710000Y-20380000D02*
X67370000Y-20380000D01*
X66040000Y-17720000D02*
X67370000Y-17720000D01*
X67370000Y-17720000D02*
X67370000Y-19050000D01*
X67370000Y-20260000D02*
X67370000Y-20380000D01*
%TO.C,J117*%
X10100000Y-32960000D02*
X10100000Y-33080000D01*
X10100000Y-33080000D02*
X12760000Y-33080000D01*
X11430000Y-30420000D02*
X12760000Y-30420000D01*
X12760000Y-30420000D02*
X12760000Y-31750000D01*
X12760000Y-32960000D02*
X12760000Y-33080000D01*
%TD*%
M02*
